<svg width="75" height="75" viewBox="0 0 75 75" fill="none" xmlns="http://www.w3.org/2000/svg">
<path fill-rule="evenodd" clip-rule="evenodd" d="M37.5 75C58.2107 75 75 58.2107 75 37.5C75 16.7893 58.2107 0 37.5 0C16.7893 0 0 16.7893 0 37.5C0 58.2107 16.7893 75 37.5 75ZM25.4372 33.931C27.3503 29.3814 29.2733 24.8415 31.2012 20.3016C31.3587 19.9319 31.515 19.5611 31.6713 19.1902L31.672 19.1885L31.6728 19.1868C31.8291 18.8159 31.9854 18.4451 32.1429 18.0755V14.2857L19.0767 45.2856C18.2237 47.3023 17.0354 49.1728 15.4971 50.7413C14.7525 51.5012 13.9735 52.1442 13.3325 52.3098C11.5032 52.7921 10.7143 52.7287 10.7143 52.7287V53.5714L15.3984 53.2597C16.7988 53.1623 18.204 53.1817 19.5994 53.3084L22.4641 53.5666L22.7057 52.3634C22.7057 52.3634 20.6348 52.6069 20.3291 51.2235C20.1121 50.2444 19.9494 49.1923 19.9494 48.1888C19.9381 46.5025 20.7904 44.6807 21.5682 43.0183L21.5682 43.0183C21.8014 42.5198 22.028 42.0357 22.2225 41.5738C22.5521 40.7912 22.8804 40.0085 23.2086 39.2261C23.7689 37.8902 24.329 36.5551 24.8949 35.2219H32.1429V33.931H25.4372ZM38.0953 11.9048H35.7143V55.9524H38.0953V11.9048ZM41.6667 20.1491V11.9048C41.6667 11.9048 52.5699 36.4177 57.4551 46.4713C58.3288 48.2708 59.2916 49.6047 59.7592 50.2526C59.8646 50.3987 59.9449 50.5099 59.9933 50.5837C61.4512 52.8037 64.2858 52.8037 64.2858 52.8037V53.5714C64.2858 53.5714 59.195 53.3416 57.6893 53.2976C56.1884 53.2536 53.0432 53.5714 53.0432 53.5714L52.7325 52.4859C52.7325 52.4859 53.569 52.437 54.6779 51.8502C55.7869 51.2585 55.1225 49.6302 55.1225 49.6302L48.5595 34.8579L41.6667 34.9117V33.8554H47.9955L41.6667 20.1491Z" fill="url(#paint0_linear_125_575)"/>
<defs>
<linearGradient id="paint0_linear_125_575" x1="10.9759" y1="10.9882" x2="64.0241" y2="64.0241" gradientUnits="userSpaceOnUse">
<stop stop-color="#FFE77C"/>
<stop offset="1" stop-color="#B28B48"/>
</linearGradient>
</defs>
</svg>
