<svg width="89" height="89" viewBox="0 0 89 89" fill="none" xmlns="http://www.w3.org/2000/svg">
<path d="M37.5 0C16.7795 0 0 16.7914 0 37.5C0 58.2086 16.7914 75 37.5 75C58.2086 75 75 58.2086 75 37.5C75 16.7914 58.2086 0 37.5 0ZM42.1338 42.4801V60.3583H32.9021V42.492C22.5358 42.0143 14.7373 39.9602 14.7373 37.5C14.7373 35.0398 22.5358 32.9857 32.9021 32.508V26.9307H20.1473V18.4275H54.8885V26.9307H42.1338V32.508C52.4881 32.9857 60.2627 35.0398 60.2627 37.5C60.2627 39.9602 52.4761 42.0143 42.1338 42.492V42.4801ZM58.1011 37.0581C58.1011 38.957 51.2699 40.5573 42.1338 40.9634C41.871 40.9753 40.5334 41.0589 37.5597 41.0589C35.1831 41.0589 33.4992 40.9873 32.914 40.9634C23.754 40.5693 16.9108 38.969 16.9108 37.0581C16.9108 35.1473 23.754 33.5589 32.914 33.1529V39.387C33.5111 39.4228 35.2309 39.5303 37.5955 39.5303C40.4379 39.5303 41.871 39.4108 42.1338 39.387V33.1529C51.2818 33.5589 58.1011 35.1592 58.1011 37.0581Z" fill="url(#paint0_linear_125_589)"/>
<g filter="url(#filter0_d_125_589)">
<path d="M85 27L80.376 38.7624L77.7574 35.5435L51.3118 56.526L44.6935 51.3486L8 81L44.6493 45.7456L51.2897 50.9394L74.9897 32.1447L72.3711 28.9258L85 27Z" fill="white"/>
</g>
<defs>
<filter id="filter0_d_125_589" x="4" y="27" width="85" height="62" filterUnits="userSpaceOnUse" color-interpolation-filters="sRGB">
<feFlood flood-opacity="0" result="BackgroundImageFix"/>
<feColorMatrix in="SourceAlpha" type="matrix" values="0 0 0 0 0 0 0 0 0 0 0 0 0 0 0 0 0 0 127 0" result="hardAlpha"/>
<feOffset dy="4"/>
<feGaussianBlur stdDeviation="2"/>
<feComposite in2="hardAlpha" operator="out"/>
<feColorMatrix type="matrix" values="0 0 0 0 0 0 0 0 0 0 0 0 0 0 0 0 0 0 0.25 0"/>
<feBlend mode="normal" in2="BackgroundImageFix" result="effect1_dropShadow_125_589"/>
<feBlend mode="normal" in="SourceGraphic" in2="effect1_dropShadow_125_589" result="shape"/>
</filter>
<linearGradient id="paint0_linear_125_589" x1="10.9759" y1="10.9882" x2="64.0241" y2="64.0241" gradientUnits="userSpaceOnUse">
<stop stop-color="#FFE77C"/>
<stop offset="1" stop-color="#B28B48"/>
</linearGradient>
</defs>
</svg>
