<svg width="75" height="74" viewBox="0 0 75 74" fill="none" xmlns="http://www.w3.org/2000/svg">
<path d="M37.5 0C16.7795 0 0 16.5675 0 37C0 57.4325 16.7914 74 37.5 74C58.2086 74 75 57.4325 75 37C75 16.5675 58.2086 0 37.5 0ZM42.1338 41.9137V59.5535H32.9021V41.9255C22.5358 41.4541 14.7373 39.4274 14.7373 37C14.7373 34.5726 22.5358 32.5459 32.9021 32.0745V26.5717H20.1473V18.1818H54.8885V26.5717H42.1338V32.0745C52.4881 32.5459 60.2627 34.5726 60.2627 37C60.2627 39.4274 52.4761 41.4541 42.1338 41.9255V41.9137ZM58.1011 36.564C58.1011 38.4376 51.2699 40.0166 42.1338 40.4172C41.871 40.429 40.5334 40.5115 37.5597 40.5115C35.1831 40.5115 33.4992 40.4408 32.914 40.4172C23.754 40.0283 16.9108 38.4494 16.9108 36.564C16.9108 34.6787 23.754 33.1115 32.914 32.7108V38.8618C33.5111 38.8971 35.2309 39.0032 37.5955 39.0032C40.4379 39.0032 41.871 38.8854 42.1338 38.8618V32.7108C51.2818 33.1115 58.1011 34.6904 58.1011 36.564Z" fill="url(#paint0_linear_125_583)"/>
<defs>
<linearGradient id="paint0_linear_125_583" x1="10.9759" y1="10.8417" x2="63.3122" y2="63.873" gradientUnits="userSpaceOnUse">
<stop stop-color="#FFE77C"/>
<stop offset="1" stop-color="#B28B48"/>
</linearGradient>
</defs>
</svg>
