<svg width="75" height="75" viewBox="0 0 75 75" fill="none" xmlns="http://www.w3.org/2000/svg">
<path d="M37.5 0C16.7197 0 0 16.7197 0 37.5C0 58.2803 16.7197 75 37.5 75C58.2803 75 75 58.2803 75 37.5C75 16.7197 58.2803 0 37.5 0ZM30.4658 63.4514C30.4658 63.7619 30.4658 63.9172 30.3105 64.0725C30.1553 64.6935 29.5342 65.0159 28.9013 64.6935C20.1473 61.875 13.4355 55.1632 10.617 46.4092C5.92357 31.5645 14.0565 15.7763 28.9013 11.0947C29.0565 10.9395 29.367 10.9395 29.5223 10.9395C30.1433 11.0948 30.4658 11.5605 30.4658 12.1935V14.379C30.4658 15.1672 30.1553 15.633 29.5223 15.9435C23.121 18.2842 17.9618 23.2882 15.621 29.8447C11.0828 41.871 17.3408 55.4737 29.5223 59.8448C29.9881 60.1553 30.4658 60.7882 30.4658 61.254V63.4395V63.4514ZM39.996 55.4857C39.8408 56.2619 39.375 56.7397 38.742 56.7397H36.4013C35.625 56.5844 35.1473 56.1186 35.1473 55.4857V51.7357C29.9881 50.9594 27.492 48.1409 26.871 44.2357V44.0804C26.871 43.4594 27.3368 42.9817 27.9697 42.9817H30.621C31.0868 42.9817 31.5645 43.2922 31.7197 43.9252C32.1855 46.2659 33.5947 47.9857 37.6553 47.9857C40.629 47.9857 42.8145 46.2659 42.8145 43.7699C42.8145 41.2739 41.4053 40.3304 37.0342 39.5541C30.4658 38.7779 27.3487 36.7357 27.3487 31.5884C27.3487 27.6831 30.3225 24.5541 35.004 23.9331V20.3384C35.1592 19.5621 35.625 19.0844 36.258 19.0844H38.5987C39.375 19.2397 39.8527 19.7054 39.8527 20.3384V24.0884C43.4475 24.3989 46.254 27.0502 46.887 30.4897V30.6449C46.887 31.2659 46.4212 31.7436 45.7882 31.7436H43.2922C42.8264 31.7436 42.3487 31.4331 42.1935 30.9674C41.4172 28.6266 39.8527 27.6831 37.0342 27.6831C33.9053 27.6831 32.3408 29.0924 32.3408 31.2779C32.3408 33.4634 33.2842 34.7174 37.9658 35.3384C44.5342 36.1266 47.8065 38.0016 47.8065 43.4713C47.8065 47.6871 44.6776 50.9713 39.996 51.7596V55.5096V55.4857ZM46.0868 64.8607C45.9315 65.0159 45.621 65.0159 45.4658 65.0159C44.8447 64.8607 44.5223 64.3949 44.5223 63.762V61.5764C44.5223 60.7882 44.8328 60.3225 45.4658 60.012C51.867 57.6712 57.0263 52.6672 59.367 46.1107C63.9053 34.0844 57.6473 20.4817 45.4658 16.1107C45 15.8002 44.5223 15.1672 44.5223 14.5462V12.3607C44.5223 12.0502 44.5223 11.8949 44.6776 11.7397C44.8328 11.1186 45.4538 10.7962 46.0868 11.1186C54.6855 13.9371 61.5526 20.6489 64.371 29.5581C69.0645 44.4029 60.9315 60.1911 46.0868 64.8726V64.8607Z" fill="url(#paint0_linear_125_586)"/>
<defs>
<linearGradient id="paint0_linear_125_586" x1="10.9759" y1="10.9882" x2="64.0241" y2="64.0241" gradientUnits="userSpaceOnUse">
<stop stop-color="#FFE77C"/>
<stop offset="1" stop-color="#B28B48"/>
</linearGradient>
</defs>
</svg>
